. 
 
http://www.torrenting.com          :     Once & For all ;)


               www . Torrenting . Com 

(((((((((((((= Enjoy No RAR releases =))))))))))))))))))))


...................................NFO:....................................

.                                                                                                     
       
     
     
       
       
     
     
                                         
                                         
                EXVID                    
                                         
         
                                         
         Filled the Archives             
                                         
         
                                         
                With:                    
                                         
         
                                         
                                    
     E240                           
                                    
     SP               (C) 2009      
                                         
     
     
     
                                                                                  
                                                                                   
                Midnight.Madness.1980.iNTERNAL.DVDRip.XviD-EXViDiNT                 
                                                                                   
                                                                                  
     
                                                                                               
EXViD aims to iNTERNAL those releases which have been lost in the archives.
EXViD aims to PRE non-internal releases which have poor sources and are likely skipped by others.
 
http://www.imdb.com/title/tt0081159/
Subtitles: EN SP FR
Date: 2011.03

Director: Michael Nankin, David Wechter
Genre: Family | Comedy  
Plot: Leon planned "The Great Allnighter" by picking college students to participate in his 
night long scavenger hunt. The five teams, each designated by colors white (nerds who hate 
green),green (meat machine who hate red), red (sorority sisters who hate green), yellow (good 
guys who play fair), and blue (cheaters who hate yellow) are given clues to solve, leading 
them to the next clue site hidden in the city. Michael J. Fox plays Scott,the younger brother,
in his movie debut.

Cast
Cast overview, first billed only:
David Naughton 	David Naughton 	... 	
Adam Larson - Yellow Team Leader
Debra Clinger 	Debra Clinger 	... 	
Laura - Yellow Team
David Damas 	David Damas 	... 	
Marvin - Yellow Team
Michael J. Fox 	Michael J. Fox 	... 	
Scott Larson (as Michael Fox)
Stephen Furst 	Stephen Furst 	... 	
Harold - Blue Team Leader
Patricia Alice Albrecht 	Patricia Alice Albrecht 	... 	
Lucille - Blue Team
Andy Tennant 	Andy Tennant 	... 	
Melio - Blue Team
Brian Frishman 	Brian Frishman 	... 	
Barf - Blue Team
Joel Kenney 	Joel Kenney 	... 	
Flynch - Yellow Team (as Joel P. Kenney)
Sal Lopez 	Sal Lopez 	... 	
Blade - Blue Team
Maggie Roswell 	Maggie Roswell 	... 	
Donna - Red Team Leader
Robyn Petty 	Robyn Petty 	... 	
Berle - Red Team
Betsy Lynn Thompson 	Betsy Lynn Thompson 	... 	
Peggy - Red Team
Carol Gwynn Thompson 	Carol Gwynn Thompson 	... 	
Lulu - Red Team
Eddie Deezen 	Eddie Deezen 	... 	
Wesley - White Team Leader
Full cast and crew  

Stats:
General
Format                           : AVI
Format/Info                      : Audio Video Interleave
File size                        : 1.36 GiB
Duration                         : 1h 52mn
Overall bit rate                 : 1 736 Kbps
Writing application              : VirtualDubMod 1.5.10.2 (build 2542/release)
Writing library                  : VirtualDubMod build 2542/release

Video
ID                               : 0
Format                           : MPEG-4 Visual
Format profile                   : Advanced Simple@L5
Format settings, BVOP            : Yes
Format settings, QPel            : No
Format settings, GMC             : No warppoints
Format settings, Matrix          : Default (H.263)
Codec ID                         : XVID
Codec ID/Hint                    : XviD
Duration                         : 1h 52mn
Bit rate                         : 1 624 Kbps
Width                            : 640 pixels
Height                           : 464 pixels
Display aspect ratio             : 1.379
Frame rate                       : 23.976 fps
Resolution                       : 8 bits
Colorimetry                      : 4:2:0
Scan type                        : Progressive
Bits/(Pixel*Frame)               : 0.228
Stream size                      : 1.28 GiB (94%)
Writing library                  : XviD 61

Audio
ID                               : 1
Format                           : MPEG Audio
Format version                   : Version 1
Format profile                   : Layer 3
Mode                             : Joint stereo
Format_Settings_ModeExtension    : MS Stereo
Codec ID                         : 55
Codec ID/Hint                    : MP3
Duration                         : 1h 52mn
Bit rate mode                    : Variable
Bit rate                         : 99.2 Kbps
Minimum bit rate                 : 32.0 Kbps
Channel(s)                       : 2 channels
Sampling rate                    : 48.0 KHz
Stream size                      : 79.8 MiB (6%)
Alignment                        : Aligned on interleaves
Interleave, duration             : 24 ms (0.58 video frame)
Interleave, preload duration     : 185 ms
Writing library                  : LAME3.98r
Encoding settings                : -m j -V 4 -q 0 -lowpass 17.5 --vbr-new -b 32




Release notes:
enjoy!

Looking for:
75TB+ Archives
                                                                                                    
Greets: CRBS EPiSODE FiCO FLS iLS KLASSiGER LiPSYNC MADE NODLABS RUNNER SPRiNTER
   

                                                                    ASCII DONE BY XX^NFO 2oo9